<svg aria-hidden="true" style="position: absolute; width: 0; height: 0; overflow: hidden;" version="1.1" xmlns="http://www.w3.org/2000/svg" xmlns:xlink="http://www.w3.org/1999/xlink">
<defs>
<symbol id="icon-calendar" viewBox="0 0 32 32">
<path fill="#a6abb9" style="fill: var(--color1, #a6abb9)" d="M28.25 2.5h-1.5v-2.5h-2.5v2.5h-16.5v-2.5h-2.5v2.5h-1.5c-2.068 0-3.75 1.682-3.75 3.75v22c0 2.068 1.682 3.75 3.75 3.75h24.5c2.068 0 3.75-1.682 3.75-3.75v-22c0-2.068-1.682-3.75-3.75-3.75zM29.5 28.25c0 0.689-0.561 1.25-1.25 1.25h-24.5c-0.689 0-1.25-0.561-1.25-1.25v-16.5h27v16.5zM29.5 9.25h-27v-3c0-0.689 0.561-1.25 1.25-1.25h1.5v2.5h2.5v-2.5h16.5v2.5h2.5v-2.5h1.5c0.689 0 1.25 0.561 1.25 1.25v3z"></path>
<path fill="#a6abb9" style="fill: var(--color1, #a6abb9)" d="M7.25 14.375h-2.5v2.5h2.5v-2.5z"></path>
<path fill="#a6abb9" style="fill: var(--color1, #a6abb9)" d="M12.25 14.375h-2.5v2.5h2.5v-2.5z"></path>
<path fill="#a6abb9" style="fill: var(--color1, #a6abb9)" d="M17.25 14.375h-2.5v2.5h2.5v-2.5z"></path>
<path fill="#a6abb9" style="fill: var(--color1, #a6abb9)" d="M22.25 14.375h-2.5v2.5h2.5v-2.5z"></path>
<path fill="#a6abb9" style="fill: var(--color1, #a6abb9)" d="M27.25 14.375h-2.5v2.5h2.5v-2.5z"></path>
</symbol>
<symbol id="icon-arrow-down" viewBox="0 0 69 32">
<path d="M34.667 32l-30.022-28h60.045l-30.022 28z"></path>
</symbol>
<symbol id="icon-delete" viewBox="0 0 25 32">
<path fill="#a6abb9" style="fill: var(--color1, #a6abb9)" d="M19.556 10.667v17.778h-14.222v-17.778h14.222zM16.889 0h-8.889l-1.778 1.778h-6.222v3.556h24.889v-3.556h-6.222l-1.778-1.778zM23.111 7.111h-21.333v21.333c0 1.956 1.6 3.556 3.556 3.556h14.222c1.956 0 3.556-1.6 3.556-3.556v-21.333z"></path>
</symbol>
<symbol id="icon-arrow-down" viewBox="0 0 32 32">
<path d="M16 31l15-15h-9v-16h-12v16h-9z"></path>
</symbol>
<symbol id="icon-like-palm" viewBox="0 0 32 32">
<path fill="#a6abb9" style="fill: var(--color1, #a6abb9)" d="M12 28h12c1.107 0 2.053-0.667 2.453-1.627l4.027-9.4c0.12-0.307 0.187-0.627 0.187-0.973v-2.667c0-1.467-1.2-2.667-2.667-2.667h-8.413l1.267-6.093 0.040-0.427c0-0.547-0.227-1.053-0.587-1.413l-1.413-1.4-8.787 8.787c-0.48 0.48-0.773 1.147-0.773 1.88v13.333c0 1.467 1.2 2.667 2.667 2.667zM12 12l5.787-5.787-1.787 7.12h12v2.667l-4 9.333h-12v-13.333zM1.333 12h5.333v16h-5.333v-16z"></path>
</symbol>
<symbol id="icon-check-mark" viewBox="0 0 48 32">
<path fill="#ff6b08" style="fill: var(--color1, #ff6b08)" d="M47.803 4.772l-29.761 27.049c-0.262 0.238-0.687 0.238-0.948 0l-16.898-15.359c-0.262-0.237-0.262-0.623 0-0.861l4.106-3.732c0.262-0.238 0.687-0.238 0.948 0l12.319 11.196 25.181-22.887c0.262-0.238 0.686-0.238 0.948 0l4.105 3.732c0.262 0.238 0.262 0.623 0 0.862z"></path>
</symbol>
</defs>
</svg>
